HIERARCHY
ROOT Hips
{
    OFFSET   0.000000   0.000000   0.000000
    CHANNELS 6 Xposition Yposition Zposition Zrotation Xrotation Yrotation
    JOINT Chest
    {
        OFFSET   0.000000   8.007230   0.000000
        CHANNELS 3 Zrotation Xrotation Yrotation
        JOINT Chest2
        {
            OFFSET   0.000000  22.077100   0.000000
            CHANNELS 3 Zrotation Xrotation Yrotation
            JOINT Neck
            {
                OFFSET   0.000000  23.254700   0.000000
                CHANNELS 3 Zrotation Xrotation Yrotation
                JOINT Head
                {
                    OFFSET   0.000010  14.370000   1.956610
                    CHANNELS 3 Zrotation Xrotation Yrotation
                    End Site
                    {
                        OFFSET   0.000000  19.566000   0.000000
                    }
                }
            }
            JOINT LeftCollar
            {
                OFFSET   3.911900  19.017000  -0.467063
                CHANNELS 3 Zrotation Xrotation Yrotation
                JOINT LeftShoulder
                {
                    OFFSET  10.383700   0.000000   0.000000
                    CHANNELS 3 Zrotation Xrotation Yrotation
                    JOINT LeftElbow
                    {
                        OFFSET  26.662100   0.001671   0.000522
                        CHANNELS 3 Zrotation Xrotation Yrotation
                        JOINT LeftWrist
                        {
                            OFFSET  28.869000   0.000037  -0.000114
                            CHANNELS 3 Zrotation Xrotation Yrotation
                            JOINT LeftFinger0
                            {
                                OFFSET   2.044650  -2.323450   3.252850
                                CHANNELS 3 Zrotation Xrotation Yrotation
                                JOINT LeftFinger01
                                {
                                    OFFSET   3.088140   0.000000   0.000000
                                    CHANNELS 3 Zrotation Xrotation Yrotation
                                    JOINT LeftFinger02
                                    {
                                        OFFSET   2.639460   0.000000   0.000000
                                        CHANNELS 3 Zrotation Xrotation Yrotation
                                        End Site
                                        {
                                            OFFSET   2.582190   0.000000   0.000000
                                        }
                                    }
                                }
                            }
                            JOINT LeftFinger1
                            {
                                OFFSET   8.364480   0.000000   3.252850
                                CHANNELS 3 Zrotation Xrotation Yrotation
                                JOINT LeftFinger11
                                {
                                    OFFSET   4.646930   0.000000   0.000000
                                    CHANNELS 3 Zrotation Xrotation Yrotation
                                    JOINT LeftFinger12
                                    {
                                        OFFSET   2.323470   0.000000   0.000000
                                        CHANNELS 3 Zrotation Xrotation Yrotation
                                        End Site
                                        {
                                            OFFSET   2.273050   0.000000   0.000000
                                        }
                                    }
                                }
                            }
                            JOINT LeftFinger2
                            {
                                OFFSET   8.364490   0.000016   1.078090
                                CHANNELS 3 Zrotation Xrotation Yrotation
                                JOINT LeftFinger21
                                {
                                    OFFSET   5.111620   0.000000   0.000000
                                    CHANNELS 3 Zrotation Xrotation Yrotation
                                    JOINT LeftFinger22
                                    {
                                        OFFSET   2.788150   0.000013   0.000000
                                        CHANNELS 3 Zrotation Xrotation Yrotation
                                        End Site
                                        {
                                            OFFSET   2.727660   0.000000   0.000000
                                        }
                                    }
                                }
                            }
                            JOINT LeftFinger3
                            {
                                OFFSET   7.899780   0.000016  -1.078090
                                CHANNELS 3 Zrotation Xrotation Yrotation
                                JOINT LeftFinger31
                                {
                                    OFFSET   4.646930   0.000000   0.000000
                                    CHANNELS 3 Zrotation Xrotation Yrotation
                                    JOINT LeftFinger32
                                    {
                                        OFFSET   2.323470   0.000000   0.000000
                                        CHANNELS 3 Zrotation Xrotation Yrotation
                                        End Site
                                        {
                                            OFFSET   2.273050   0.000000   0.000000
                                        }
                                    }
                                }
                            }
                            JOINT LeftFinger4
                            {
                                OFFSET   7.435080   0.000000  -3.252850
                                CHANNELS 3 Zrotation Xrotation Yrotation
                                JOINT LeftFinger41
                                {
                                    OFFSET   3.717550   0.000000   0.000000
                                    CHANNELS 3 Zrotation Xrotation Yrotation
                                    JOINT LeftFinger42
                                    {
                                        OFFSET   1.858760   0.000000   0.000000
                                        CHANNELS 3 Zrotation Xrotation Yrotation
                                        End Site
                                        {
                                            OFFSET   1.818440   0.000000   0.000000
                                        }
                                    }
                                }
                            }
                        }
                    }
                }
            }
            JOINT RightCollar
            {
                OFFSET  -3.911900  19.017000  -0.467064
                CHANNELS 3 Zrotation Xrotation Yrotation
                JOINT RightShoulder
                {
                    OFFSET -10.383700   0.000000   0.000000
                    CHANNELS 3 Zrotation Xrotation Yrotation
                    JOINT RightElbow
                    {
                        OFFSET -26.662100   0.001633   0.000260
                        CHANNELS 3 Zrotation Xrotation Yrotation
                        JOINT RightWrist
                        {
                            OFFSET -28.869000  -0.000045  -0.000080
                            CHANNELS 3 Zrotation Xrotation Yrotation
                            JOINT RightFinger0
                            {
                                OFFSET  -2.044660  -2.323490   3.252850
                                CHANNELS 3 Zrotation Xrotation Yrotation
                                JOINT RightFinger01
                                {
                                    OFFSET  -3.088140   0.000000   0.000000
                                    CHANNELS 3 Zrotation Xrotation Yrotation
                                    JOINT RightFinger02
                                    {
                                        OFFSET  -2.639450   0.000000   0.000000
                                        CHANNELS 3 Zrotation Xrotation Yrotation
                                        End Site
                                        {
                                            OFFSET  -2.582190   0.000000   0.000000
                                        }
                                    }
                                }
                            }
                            JOINT RightFinger1
                            {
                                OFFSET  -8.364480   0.000000   3.252850
                                CHANNELS 3 Zrotation Xrotation Yrotation
                                JOINT RightFinger11
                                {
                                    OFFSET  -4.646920   0.000000   0.000000
                                    CHANNELS 3 Zrotation Xrotation Yrotation
                                    JOINT RightFinger12
                                    {
                                        OFFSET  -2.323470   0.000000   0.000000
                                        CHANNELS 3 Zrotation Xrotation Yrotation
                                        End Site
                                        {
                                            OFFSET  -2.273050   0.000000   0.000000
                                        }
                                    }
                                }
                            }
                            JOINT RightFinger2
                            {
                                OFFSET  -8.364480   0.000000   1.078090
                                CHANNELS 3 Zrotation Xrotation Yrotation
                                JOINT RightFinger21
                                {
                                    OFFSET  -5.111610   0.000000   0.000000
                                    CHANNELS 3 Zrotation Xrotation Yrotation
                                    JOINT RightFinger22
                                    {
                                        OFFSET  -2.788160   0.000000   0.000000
                                        CHANNELS 3 Zrotation Xrotation Yrotation
                                        End Site
                                        {
                                            OFFSET  -2.727660   0.000000   0.000000
                                        }
                                    }
                                }
                            }
                            JOINT RightFinger3
                            {
                                OFFSET  -7.899780   0.000000  -1.078090
                                CHANNELS 3 Zrotation Xrotation Yrotation
                                JOINT RightFinger31
                                {
                                    OFFSET  -4.646930   0.000000   0.000000
                                    CHANNELS 3 Zrotation Xrotation Yrotation
                                    JOINT RightFinger32
                                    {
                                        OFFSET  -2.323470   0.000000   0.000000
                                        CHANNELS 3 Zrotation Xrotation Yrotation
                                        End Site
                                        {
                                            OFFSET  -2.273050   0.000000   0.000000
                                        }
                                    }
                                }
                            }
                            JOINT RightFinger4
                            {
                                OFFSET  -7.435090   0.000000  -3.252850
                                CHANNELS 3 Zrotation Xrotation Yrotation
                                JOINT RightFinger41
                                {
                                    OFFSET  -3.717550   0.000000   0.000000
                                    CHANNELS 3 Zrotation Xrotation Yrotation
                                    JOINT RightFinger42
                                    {
                                        OFFSET  -1.858760   0.000000   0.000000
                                        CHANNELS 3 Zrotation Xrotation Yrotation
                                        End Site
                                        {
                                            OFFSET  -1.818440   0.000000   0.000000
                                        }
                                    }
                                }
                            }
                        }
                    }
                }
            }
        }
    }
    JOINT LeftHip
    {
        OFFSET   9.782990   0.000000   0.000000
        CHANNELS 3 Zrotation Xrotation Yrotation
        JOINT LeftKnee
        {
            OFFSET  -0.000063 -41.789100   0.001657
            CHANNELS 3 Zrotation Xrotation Yrotation
            JOINT LeftAnkle
            {
                OFFSET   0.000078 -41.133200  -0.000113
                CHANNELS 3 Zrotation Xrotation Yrotation
                JOINT LeftToe
                {
                    OFFSET   0.000000  -6.358970  14.674500
                    CHANNELS 3 Zrotation Xrotation Yrotation
                    End Site
                    {
                        OFFSET   0.000000   0.000000   3.913200
                    }
                }
            }
        }
    }
    JOINT RightHip
    {
        OFFSET  -9.782990   0.000000   0.000000
        CHANNELS 3 Zrotation Xrotation Yrotation
        JOINT RightKnee
        {
            OFFSET   0.000053 -41.789200   0.000277
            CHANNELS 3 Zrotation Xrotation Yrotation
            JOINT RightAnkle
            {
                OFFSET   0.000030 -41.133200  -0.000150
                CHANNELS 3 Zrotation Xrotation Yrotation
                JOINT RightToe
                {
                    OFFSET   0.000000  -6.358960  14.674500
                    CHANNELS 3 Zrotation Xrotation Yrotation
                    End Site
                    {
                        OFFSET   0.000000   0.000000   3.913200
                    }
                }
            }
        }
    }
}
MOTION
Frames: 5
Frame Time:   0.016667
 -0.107661  89.576500   0.679058  -1.924730  -7.450200  -0.679487   0.926895   3.726390   0.184841   1.847590   7.455280   0.310087   0.679630   0.348758  -0.002032   1.116600   0.706989   1.927010  -4.028520  -0.367046   0.896799 -74.284300  12.973800   0.978103  -1.951830  -4.684400 -14.848700   8.142980 -10.988900   1.742060  40.907400  31.468300 -65.453300 -26.239000  -0.003826  -0.001827  -8.119530  -0.003356  -0.001554 -22.834400   3.742890  -8.826380 -18.918500  -0.002412   0.000378 -13.242900  -0.002825  -0.000123 -28.153800  -0.678430   1.274030 -33.072300  -0.003702  -0.000373 -22.026200  -0.002349  -0.001103 -27.830300  -0.671346   1.277790 -30.998400  -0.004552  -0.001157 -20.644900  -0.003850  -0.002121 -29.585400  -0.708983   1.256520 -44.389700  -0.006679  -0.004989 -29.563500  -0.003344  -0.005103   8.727510   1.251670   5.125730  69.555600   6.017840  -6.737520  -2.317460  -3.856000  14.424400 -10.063000  -8.427850   1.508530 -39.419900  33.857800  66.220100  31.210000  -0.005857  -0.002386  10.610300  -0.008771  -0.001344  31.339400   8.083900  13.003200  26.396300  -0.000962   0.003707  18.477400  -0.005003   0.002669  29.752500   2.521250   4.399240  44.786800  -0.000178   0.003278  29.819200   0.006199   0.001945  27.912000   1.213370   2.289720  31.555100   0.000849   0.007952  21.015700  -0.001569   0.004621  36.717800  -0.176097  -0.237463  55.077300   0.001714   0.001708  36.681500   0.003207  -0.000221   2.440540   9.213020   4.202340   1.298820   0.053490   7.628040  -2.414390  -2.368340   0.755674  -0.000000   0.000000   0.000000   2.858550   8.018920   2.503350  -1.757680   2.579770 -10.060000   0.331943  -3.647810   0.578532   0.000000   0.000000  -0.000000
 -0.118258  89.576500   0.690474  -1.924360  -7.450260  -0.671282   0.924467   3.730090   0.185981   1.842650   7.462710   0.312476   0.698016   0.340670  -0.002031   1.146820   0.690523   1.913150  -4.028850  -0.359320   0.896587 -74.285900  12.976200   0.983790  -1.960170  -4.697520 -14.843700   8.156620 -10.979400   1.742010  40.920000  31.481200 -65.448600 -26.239000  -0.003826  -0.001803  -8.119530  -0.003357  -0.001552 -22.818100   3.742890  -8.826380 -18.905400  -0.002409   0.000381 -13.233800  -0.002816  -0.000118 -28.153800  -0.678690   1.269420 -33.060400  -0.003691  -0.000364 -22.018200  -0.002344  -0.001093 -27.830200  -0.671602   1.273200 -30.976800  -0.004546  -0.001144 -20.630500  -0.003844  -0.002109 -29.565600  -0.709244   1.252200 -44.360000  -0.006671  -0.004986 -29.543700  -0.003357  -0.005098   8.733650   1.252870   5.131670  69.544400   6.046440  -6.738470  -2.306930  -3.873460  14.404400 -10.082600  -8.445510   1.498130 -39.411700  33.849400  66.205400  31.216300  -0.005857  -0.002390  10.611300  -0.008775  -0.001333  31.339500   8.084420  13.004200  26.396500  -0.000952   0.003693  18.477600  -0.005010   0.002660  29.755300   2.526020   4.407690  44.787300  -0.000169   0.003267  29.822500   0.006195   0.001936  27.911500   1.217500   2.297560  31.555300   0.000859   0.007941  21.015800  -0.001572   0.004613  36.715200  -0.176120  -0.237485  55.073300   0.001727   0.001701  36.678800   0.003199  -0.000226   2.447500   9.224660   4.202480   1.299280   0.046986   7.626080  -2.419300  -2.368480   0.749547  -0.000000   0.000000   0.000000   2.867180   8.032120   2.495450  -1.759930   2.570460 -10.055100   0.325705  -3.647940   0.571083  -0.000000   0.000000   0.000000
 -0.135983  89.576400   0.708948  -1.924350  -7.450340  -0.657638   0.920012   3.735760   0.188095   1.833570   7.474100   0.316918   0.728375   0.328818  -0.002022   1.196710   0.666444   1.888400  -4.029290  -0.345002   0.896374 -74.288300  12.978600   0.993490  -1.971550  -4.710730 -14.835100   8.182980 -10.963500   1.741920  40.937900  31.500400 -65.437400 -26.239000  -0.003827  -0.001779  -8.119550  -0.003362  -0.001542 -22.801700   3.742890  -8.826380 -18.892400  -0.002399   0.000390 -13.224700  -0.002786  -0.000108 -28.153800  -0.679053   1.263260 -33.048600  -0.003663  -0.000337 -22.010300  -0.002333  -0.001068 -27.830200  -0.671960   1.267040 -30.955100  -0.004533  -0.001109 -20.616100  -0.003829  -0.002075 -29.538600  -0.709610   1.246440 -44.319600  -0.006651  -0.004975 -29.516900  -0.003391  -0.005085   8.743320   1.255920   5.139950  69.525800   6.086470  -6.741570  -2.291600  -3.900040  14.373600 -10.110200  -8.474290   1.487630 -39.403600  33.841000  66.190700  31.226000  -0.005853  -0.002394  10.613000  -0.008786  -0.001322  31.340700   8.088120  13.009100  26.398100  -0.000925   0.003661  18.478700  -0.005030   0.002635  29.762900   2.534530   4.421950  44.791200  -0.000148   0.003236  29.830900   0.006185   0.001911  27.910800   1.223880   2.309550  31.556600   0.000883   0.007914  21.016700  -0.001578   0.004591  36.712600  -0.176165  -0.237526  55.069400   0.001761   0.001681  36.676200   0.003178  -0.000240   2.459780   9.236310   4.202630   1.299730   0.040482   7.621070  -2.428550  -2.369420   0.738805  -0.000000   0.000000  -0.000000   2.881760   8.052950   2.482080  -1.763550   2.554050 -10.047900   0.315017  -3.648830   0.559254  -0.000000   0.000000   0.000000
 -0.150333  89.576400   0.722604  -1.925710  -7.450340  -0.647114   0.915550   3.738660   0.190301   1.824470   7.479880   0.321592   0.752040   0.323127  -0.001997   1.235600   0.655050   1.864990  -4.029480  -0.329572   0.896425 -74.289800  12.968400   1.003820  -1.978060  -4.710630 -14.829100   8.215260 -10.950400   1.748670  40.945000  31.515100 -65.419600 -26.251900  -0.003833  -0.001818  -8.125990  -0.003376  -0.001517 -22.807600   3.740250  -8.817520 -18.896800  -0.002382   0.000404 -13.227800  -0.002728  -0.000099 -28.153700  -0.679205   1.262070 -33.049200  -0.003617  -0.000294 -22.010700  -0.002320  -0.001029 -27.830000  -0.672113   1.265840 -30.955900  -0.004519  -0.001053 -20.616700  -0.003800  -0.002023 -29.530100  -0.709767   1.245370 -44.306800  -0.006618  -0.004956 -29.508400  -0.003443  -0.005064   8.748980   1.262140   5.141700  69.512900   6.103620  -6.747080  -2.284860  -3.917030  14.353200 -10.124600  -8.501120   1.487570 -39.397000  33.842700  66.215600  31.231900  -0.005832  -0.002386  10.614100  -0.008805  -0.001330  31.358900   8.103740  13.023900  26.415300  -0.000885   0.003617  18.490800  -0.005062   0.002592  29.779300   2.543070   4.434220  44.814300  -0.000114   0.003182  29.847700   0.006165   0.001872  27.911900   1.228000   2.316960  31.584200   0.000922   0.007875  21.035100  -0.001582   0.004555  36.726100  -0.176225  -0.237581  55.089700   0.001812   0.001648  36.689700   0.003146  -0.000260   2.469760   9.232820   4.207510   1.299890   0.050777   7.612460  -2.438570  -2.377990   0.729507  -0.000000   0.000000   0.000000   2.893770   8.066360   2.471040  -1.766390   2.538950 -10.043200   0.305757  -3.653320   0.549914   0.000000   0.000000   0.000000
 -0.164678  89.576400   0.735521  -1.927620  -7.450260  -0.635979   0.910674   3.742240   0.192624   1.814540   7.487030   0.326517   0.775420   0.318638  -0.001964   1.274010   0.646090   1.839920  -4.029350  -0.314310   0.896792 -74.287800  12.958200   1.010130  -1.983010  -4.710590 -14.820100   8.248630 -10.937400   1.762630  40.944600  31.516700 -65.399100 -26.264900  -0.003842  -0.001858  -8.132420  -0.003387  -0.001496 -22.819400   3.737610  -8.808650 -18.906000  -0.002360   0.000421 -13.234200  -0.002653  -0.000081 -28.153600  -0.679255   1.261190 -33.053100  -0.003558  -0.000238 -22.013300  -0.002302  -0.000979 -27.829900  -0.672163   1.264960 -30.961700  -0.004502  -0.000981 -20.620500  -0.003764  -0.001955 -29.528700  -0.709820   1.244520 -44.304700  -0.006575  -0.004932 -29.506900  -0.003511  -0.005036   8.755710   1.266500   5.144490  69.496500   6.109290  -6.754670  -2.278970  -3.928920  14.337800 -10.130900  -8.516830   1.487600 -39.388500  33.851200  66.250900  31.237100  -0.005801  -0.002367  10.615200  -0.008829  -0.001341  31.376100   8.116160  13.034800  26.431200  -0.000833   0.003558  18.501900  -0.005101   0.002539  29.790400   2.551090   4.445770  44.834100  -0.000075   0.003114  29.859500   0.006145   0.001819  27.913800   1.231340   2.322880  31.610600   0.000971   0.007823  21.052700  -0.001588   0.004509  36.739600  -0.176279  -0.237617  55.110000   0.001878   0.001606  36.703200   0.003105  -0.000287   2.479990   9.229320   4.214620   1.300180   0.061073   7.603560  -2.449050  -2.385810   0.718765   0.000000   0.000000  -0.000000   2.906050   8.079940   2.459630  -1.768980   2.522900 -10.040900   0.296395  -3.659230   0.543492   0.000000   0.000000   0.000000
